<svg xmlns="http://www.w3.org/2000/svg" xmlns:cc="http://web.resource.org/cc/" xmlns:svg="http://www.w3.org/2000/svg" xmlns:xlink="http://www.w3.org/1999/xlink" id="svg2" version="1.0" viewBox="0 0 428.59 404.84"><defs id="defs4"><linearGradient id="linearGradient3875"><stop id="stop3877" offset="0" stop-color="#008600"/><stop id="stop3879" offset="1" stop-color="#3cc000"/></linearGradient><linearGradient id="linearGradient3194"><stop id="stop3196" offset="0" stop-color="#ff6900"/><stop id="stop3198" offset=".638" stop-color="red"/><stop id="stop3200" offset="1" stop-color="#db0000"/></linearGradient><linearGradient id="linearGradient3036"><stop id="stop3038" offset="0" stop-color="#9b7e2a"/><stop id="stop3871" offset=".536" stop-color="#cdb42a"/><stop id="stop3040" offset="1" stop-color="#ffea2a"/></linearGradient><filter id="filter2990"><feGaussianBlur id="feGaussianBlur2992" stdDeviation="4.083"/></filter><filter id="filter3116" width="1.44" height="1.598" x="-.22" y="-.299"><feGaussianBlur id="feGaussianBlur3118" stdDeviation=".916"/></filter><filter id="filter3188"><feGaussianBlur id="feGaussianBlur3190" stdDeviation=".317"/></filter><filter id="filter3270"><feGaussianBlur id="feGaussianBlur3272" stdDeviation=".616"/></filter><filter id="filter3373"><feGaussianBlur id="feGaussianBlur3375" stdDeviation="1.947"/></filter><filter id="filter3399"><feGaussianBlur id="feGaussianBlur3401" stdDeviation="2.973"/></filter><filter id="filter3415" width="1.486" height="1.449" x="-.243" y="-.225"><feGaussianBlur id="feGaussianBlur3417" stdDeviation="19.273"/></filter><radialGradient id="radialGradient5149" cx="377.24" cy="507.49" r="44.151" gradientTransform="matrix(1.5896 1.0437 -.58709 .93581 63.859 -315.81)" gradientUnits="userSpaceOnUse" spreadMethod="reflect"><stop id="stop3449" offset="0" stop-color="#ffe6c0"/><stop id="stop3451" offset=".403" stop-color="#e2a39b"/><stop id="stop3453" offset=".434" stop-color="#ffa88b"/><stop id="stop3455" offset="1" stop-color="#ffd3c3"/></radialGradient><radialGradient id="radialGradient5157" cx="375.98" cy="630.62" r="5.004" gradientTransform="matrix(1 0 0 .73499 8.44 166.19)" gradientUnits="userSpaceOnUse" xlink:href="#linearGradient3036"/><radialGradient id="radialGradient5159" cx="375.98" cy="630.62" r="5.004" gradientTransform="matrix(1 0 0 .73499 -94.161 228.79)" gradientUnits="userSpaceOnUse" xlink:href="#linearGradient3036"/><radialGradient id="radialGradient5161" cx="375.98" cy="630.62" r="5.004" gradientTransform="matrix(1 0 0 .73499 -149.86 53.732)" gradientUnits="userSpaceOnUse" xlink:href="#linearGradient3036"/><radialGradient id="radialGradient5171" cx="286.43" cy="606.59" r="16.446" gradientTransform="matrix(1 0 0 .98818 0 7.1721)" gradientUnits="userSpaceOnUse"><stop id="stop3028" offset="0" stop-color="#ff6900"/><stop id="stop3034" offset=".786" stop-color="red"/><stop id="stop3030" offset="1" stop-color="#db0000"/></radialGradient><radialGradient id="radialGradient5175" cx="375.98" cy="630.62" r="5.004" gradientTransform="matrix(1 0 0 .73499 3.7511 171.81)" gradientUnits="userSpaceOnUse" xlink:href="#linearGradient3036"/><radialGradient id="radialGradient2861" cx="178.77" cy="702.61" r="96.986" fx="123.91" fy="707.26" gradientTransform="matrix(-.32324 .17118 -.76735 -1.449 927.8 1585.6)" gradientUnits="userSpaceOnUse" spreadMethod="reflect"><stop id="stop2919" offset="0" stop-color="#ffe6b8"/><stop id="stop2925" offset=".503" stop-color="#ffd0c3"/><stop id="stop2927" offset=".668" stop-color="#ffe0b6"/><stop id="stop2921" offset="1" stop-color="#ffd3c3"/></radialGradient><filter id="filter3492" width="1.275" height="1.285" x="-.138" y="-.142"><feGaussianBlur id="feGaussianBlur3494" stdDeviation="10.276"/></filter><radialGradient id="radialGradient2721" cx="297.67" cy="605.74" r="95.266" gradientTransform="matrix(1 0 0 1.0809 20.834 -48.337)" gradientUnits="userSpaceOnUse" xlink:href="#linearGradient3194"/><radialGradient id="radialGradient2834" cx="213.38" cy="670.98" r="89.948" gradientTransform="matrix(.32345 -.082082 .068597 .27031 453.1 302.92)" gradientUnits="userSpaceOnUse" spreadMethod="reflect"><stop id="stop2940" offset="0" stop-color="#ffe6d5"/><stop id="stop2942" offset="1" stop-color="#fffff2" stop-opacity=".918"/></radialGradient><radialGradient id="radialGradient2837" cx="295.63" cy="628.75" r="72.116" gradientTransform="matrix(1.7997 -1.4734 .48682 .59461 -231.23 488.66)" gradientUnits="userSpaceOnUse"><stop id="stop2911" offset="0" stop-color="#ffb091"/><stop id="stop2913" offset="1" stop-color="#ff8649"/></radialGradient><radialGradient id="radialGradient2839" cx="295.63" cy="628.75" r="72.116" gradientTransform="matrix(1.7997 -1.4734 .48682 .59461 -231.23 488.66)" gradientUnits="userSpaceOnUse"><stop id="stop2903" offset="0" stop-color="#c02422"/><stop id="stop2905" offset="1" stop-color="#f50000" stop-opacity=".34"/></radialGradient><radialGradient id="radialGradient2844" cx="332.53" cy="590.24" r="108.44" gradientTransform="matrix(-1.4889 .91139 -.49859 -.81451 1434.4 597.58)" gradientUnits="userSpaceOnUse" spreadMethod="reflect" xlink:href="#linearGradient3194"/><linearGradient id="linearGradient2846" x1="85.344" x2="182.12" y1="630.49" y2="743.02" gradientTransform="translate(312.47 -170.54)" gradientUnits="userSpaceOnUse" spreadMethod="reflect"><stop id="stop3441" offset="0" stop-color="#a00" stop-opacity=".639"/><stop id="stop3443" offset="1" stop-color="#a00" stop-opacity="0"/></linearGradient><radialGradient id="radialGradient2849" cx="166.68" cy="1031.7" r="95.266" gradientTransform="matrix(1.8855 -1.2569 .65039 .97569 -495.44 -342.56)" gradientUnits="userSpaceOnUse" xlink:href="#linearGradient3194"/><filter id="filter3561"><feGaussianBlur id="feGaussianBlur3563" stdDeviation=".234"/></filter><filter id="filter4351"><feGaussianBlur id="feGaussianBlur4353" stdDeviation="2.29"/></filter><filter id="filter4902" width="1.466" height="1.293" x="-.233" y="-.147"><feGaussianBlur id="feGaussianBlur4904" stdDeviation="4.734"/></filter><radialGradient id="radialGradient4993" cx="-45.208" cy="171.44" r="29.618" fx="-97.014" fy="173.37" gradientTransform="matrix(-.25063 -.22482 1.3933 -1.1123 -90.855 343.14)" gradientUnits="userSpaceOnUse" spreadMethod="repeat" xlink:href="#linearGradient3875"/><linearGradient id="linearGradient4995" x1="-56.755" x2="-11.52" y1="171.44" y2="237.1" gradientTransform="matrix(-.29082 -.41007 .81801 -.58013 6.2046 243.87)" gradientUnits="userSpaceOnUse" xlink:href="#linearGradient3875"/><linearGradient id="linearGradient4998" x1="28.572" x2="33.424" y1="158.41" y2="140.24" gradientTransform="translate(61.779 21.285)" gradientUnits="userSpaceOnUse" spreadMethod="repeat" xlink:href="#linearGradient3875"/><radialGradient id="radialGradient5000" cx="46.403" cy="149.58" r="22.503" gradientTransform="matrix(-.57676 -.41527 .33534 -.46576 84.783 259.8)" gradientUnits="userSpaceOnUse" xlink:href="#linearGradient3875"/><radialGradient id="radialGradient5003" cx="-45.208" cy="171.44" r="29.618" fx="-97.014" fy="173.37" gradientTransform="matrix(.32837 -.074378 .10132 1.78 112.76 -88.734)" gradientUnits="userSpaceOnUse" spreadMethod="repeat" xlink:href="#linearGradient3875"/><linearGradient id="linearGradient5005" x1="-56.755" x2="-11.52" y1="171.44" y2="237.1" gradientTransform="matrix(.50273 0 0 1.0028 137.58 47.861)" gradientUnits="userSpaceOnUse" xlink:href="#linearGradient3875"/><radialGradient id="radialGradient5008" cx="-45.208" cy="171.44" r="29.618" fx="-97.014" fy="173.37" gradientTransform="matrix(.23451 -.11347 .44888 1.2091 68.106 -8.7781)" gradientUnits="userSpaceOnUse" spreadMethod="repeat" xlink:href="#linearGradient3875"/><linearGradient id="linearGradient5010" x1="-56.755" x2="-11.52" y1="171.44" y2="237.1" gradientTransform="matrix(.38281 -.095143 .20943 .69202 115.53 80.782)" gradientUnits="userSpaceOnUse" xlink:href="#linearGradient3875"/><radialGradient id="radialGradient5013" cx="-45.208" cy="171.44" r="29.618" fx="-97.014" fy="173.37" gradientTransform="matrix(-.23451 -.11347 -.44888 1.2091 183.74 -9.9719)" gradientUnits="userSpaceOnUse" spreadMethod="repeat" xlink:href="#linearGradient3875"/><linearGradient id="linearGradient5015" x1="-56.755" x2="-11.52" y1="171.44" y2="237.1" gradientTransform="matrix(-.38281 -.095143 -.20943 .69202 136.31 79.588)" gradientUnits="userSpaceOnUse" xlink:href="#linearGradient3875"/><radialGradient id="radialGradient5051" cx="228.29" cy="210.49" r="69.881" gradientTransform="matrix(.70955 .86281 -.52934 .43531 191.05 -88.953)" gradientUnits="userSpaceOnUse" spreadMethod="repeat"><stop id="stop4317" offset="0" stop-color="#fff"/><stop id="stop4319" offset="1" stop-color="#fff" stop-opacity="0"/></radialGradient><radialGradient id="radialGradient5053" cx="228.52" cy="210.47" r="69.381" gradientTransform="matrix(.71466 .86902 -.52759 .43387 189.33 -90.265)" gradientUnits="userSpaceOnUse"><stop id="stop4309" offset="0" stop-color="#e50000"/><stop id="stop4311" offset="1" stop-color="#fd0000" stop-opacity="0"/></radialGradient><radialGradient id="radialGradient5060" cx="76.967" cy="441.87" r="82.866" fx="87.447" fy="408.58" gradientTransform="matrix(.58228 -.64312 .99729 .90294 -237.32 -92.125)" gradientUnits="userSpaceOnUse" spreadMethod="reflect"><stop id="stop3745" offset="0" stop-color="#ff6e2f"/><stop id="stop3747" offset=".115" stop-color="red"/><stop id="stop3749" offset="1" stop-color="#b80000"/></radialGradient><radialGradient id="radialGradient5064" cx="-45.208" cy="171.44" r="29.618" fx="-97.014" fy="173.37" gradientTransform="matrix(-.25405 -.057688 .40383 -1.2249 60.191 365.99)" gradientUnits="userSpaceOnUse" spreadMethod="repeat" xlink:href="#linearGradient3875"/><linearGradient id="linearGradient5066" x1="-56.755" x2="-11.52" y1="171.44" y2="237.1" gradientTransform="matrix(-.35849 -.16456 .26822 -.67142 79.025 266.42)" gradientUnits="userSpaceOnUse" xlink:href="#linearGradient3875"/><radialGradient id="radialGradient5068" cx="375.98" cy="630.62" r="5.004" fx="374.31" fy="628.86" gradientTransform="matrix(1 0 0 .73499 -149.86 53.732)" gradientUnits="userSpaceOnUse" xlink:href="#linearGradient3036"/><linearGradient id="linearGradient5070" x1="227.31" x2="223.35" y1="520.82" y2="517.72" gradientUnits="userSpaceOnUse"><stop id="stop3547" offset="0" stop-color="#fdf5f8"/><stop id="stop3549" offset="1" stop-color="#f5f5f2" stop-opacity="0"/></linearGradient></defs><g id="layer1" transform="translate(-153.3 -129.99)"><g id="g5072" transform="translate(100.4 25.91)"><path id="path4395" fill="url(#radialGradient5064)" fill-rule="evenodd" stroke="url(#linearGradient5066)" stroke-width=".534" d="m133.76 178.2c1.36-0.22 3.98-2.29 5.78-4.94 0.34-0.5 0.71-0.94 1.06-1.4 1.61-2.12 2.68-7.34 3.04-9.52 1.1-6.49-1.12-12.91-1.4-18.66-0.17-3.53 0.94-7.75 1.59-11.6 0.58-3.4 2.59-6.21 4.17-8.53 4.02-5.91-2 0.53-3.48 1.73-4.13 3.34-8.22 8.63-12.29 12.38-2.38 2.2-3.56 4.76-5.23 8.03-0.33 0.65-0.68 1.27-1.01 1.91-2.09 3.92-2.41 7.78-2.24 11.3 0.19 4.08 0.83 6.95 2.79 8.87-7.13 14.18-5.45 37.64 7.22 10.43z"/><path id="path4750" fill="#630e02" fill-rule="evenodd" stroke="url(#radialGradient2721)" stroke-width="1" d="m324.54 503.97c113.09 9.03 119.05 190.4 0.02 198.86-130.98 32.21-118.51-141.97-32.29-187.13l15.26-7.48 17.01-4.25z" filter="url(#filter3415)" transform="matrix(1.6737 0 0 .52860 -273.39 -40.263)"/><path id="path3725" fill="url(#radialGradient5060)" fill-rule="evenodd" stroke="#a00" stroke-width="1.311" d="m108.61 223.66c-24.499 75.87 68.28 127.21 141.14 120 35.78 12.07 74.93 9.34 94.04-14.48 20.57-25.63 31.08-60.04 5.22-96.06-42.29-46.05-86.33-139.3-161.48-110.07-43.39 14.71-59.95 63.93-78.92 100.61z"/><path id="path3799" fill="url(#radialGradient5068)" stroke="url(#linearGradient5070)" stroke-linecap="round" stroke-linejoin="round" stroke-width="2.76" d="m231.12 517.23c0 2.03-2.24 3.68-5 3.68s-5-1.65-5-3.68 2.24-3.67 5-3.67 5 1.64 5 3.67z" filter="url(#filter3561)" opacity=".84" transform="matrix(.85887 1.0934 -1.3872 -.0054586 850.17 62.036)"/><use id="use4199" width="744.094" height="1052.362" x="0" y="0" transform="matrix(1.0147 0 0 1.0147 -141.89 -166.33)" xlink:href="#path3799"/><use id="use4201" width="744.094" height="1052.362" x="0" y="0" opacity=".744" transform="matrix(1.0153 0 0 1.0153 -170.34 -131.76)" xlink:href="#path3799"/><use id="use4203" width="744.094" height="1052.362" x="0" y="0" opacity=".933" transform="matrix(1.0025 0 0 1.0025 -109.16 12.318)" xlink:href="#path3799"/><path id="path4274" fill="url(#radialGradient5051)" fill-rule="evenodd" stroke="url(#radialGradient5053)" stroke-width="1" d="m266.46 215.86c-0.38-15.32-4.74-16.88-13.27-3.96 1-12.44 8.86-43.2-4.35-17.78-7.03-8.4-13.22-28.96-22.08-11.1-5.45-7.4-11.87-17.77-9.54-1.38-10.94-5.07-40.09-21.34-16.04-4.91 12.3 13.95 51.54 23.19 26.64 43.74 22.6-4.02 27.32 14.81 21.64 25.64 14.26-10.49 27.28-16.21 33.39 4.97 7.19 19.08 31.94 8.76 47.84 13.27-9.98-10.17-13.49-47.36-30.43-28.37 2.07-21.75-8.71-20.79-23.99-11.87 3.2-12.15 7.57-26.18-6.26-11.08l-3.55 2.83z" filter="url(#filter4351)"/><use id="use4205" width="744.094" height="1052.362" x="0" y="0" transform="matrix(.99997 0 0 .99997 -200.51 -41.091)" xlink:href="#path3799"/><use id="use4207" width="744.094" height="1052.362" x="0" y="0" opacity=".75" transform="matrix(.98466 0 0 .98466 -147.03 -68.816)" xlink:href="#path3799"/><use id="use4209" width="744.094" height="1052.362" x="0" y="0" opacity=".578" transform="matrix(1.0077 0 0 1.0077 -146.89 -42.337)" xlink:href="#path3799"/><use id="use4211" width="744.094" height="1052.362" x="0" y="0" transform="matrix(.95717 -.32832 .32832 .95717 -212.81 -64.275)" xlink:href="#path3799"/><use id="use4213" width="744.094" height="1052.362" x="0" y="0" opacity=".667" transform="matrix(1.0132 0 0 1.0132 -185.37 -63.237)" xlink:href="#path3799"/><use id="use4215" width="744.094" height="1052.362" x="0" y="0" opacity=".85" transform="matrix(.99989 0 0 .99989 -124.34 -92.455)" xlink:href="#path3799"/><use id="use4217" width="744.094" height="1052.362" x="0" y="0" opacity=".65" transform="matrix(1.003 0 0 1.003 -183.73 -88.428)" xlink:href="#path3799"/><use id="use4219" width="744.094" height="1052.362" x="0" y="0" transform="matrix(.99136 0 0 .99136 -16.109 -78.812)" xlink:href="#path3799"/><use id="use4221" width="744.094" height="1052.362" x="0" y="0" opacity=".65" transform="matrix(1.0033 0 0 1.0033 -107.18 -23.812)" xlink:href="#path3799"/><use id="use4223" width="744.094" height="1052.362" x="0" y="0" transform="matrix(.98534 0 0 .98534 -105.96 -140.45)" xlink:href="#path3799"/><use id="use4225" width="744.094" height="1052.362" x="0" y="0" transform="matrix(.99277 0 0 .99277 -101.34 -109.65)" xlink:href="#path3799"/><use id="use4227" width="744.094" height="1052.362" x="0" y="0" opacity=".933" transform="matrix(1.0068 0 0 1.0068 -32.813 10.655)" xlink:href="#path3799"/><use id="use4229" width="744.094" height="1052.362" x="0" y="0" transform="matrix(1.0012 0 0 1.0012 -2.3417 -61.341)" xlink:href="#path3799"/><use id="use4231" width="744.094" height="1052.362" x="0" y="0" opacity=".578" transform="matrix(.99584 0 0 .99584 -132.09 -8.2283)" xlink:href="#path3799"/><use id="use4233" width="744.094" height="1052.362" x="0" y="0" opacity=".578" transform="matrix(.99330 0 0 .99330 -116.18 -54.881)" xlink:href="#path3799"/><use id="use4235" width="744.094" height="1052.362" x="0" y="0" opacity=".733" transform="matrix(1.0102 0 0 1.0102 -90.334 -176.72)" xlink:href="#path3799"/><use id="use4237" width="744.094" height="1052.362" x="0" y="0" transform="matrix(.98475 0 0 .98475 -129.31 -119.26)" xlink:href="#path3799"/><use id="use4239" width="744.094" height="1052.362" x="0" y="0" transform="matrix(1.0085 0 0 1.0085 -65.553 -81.294)" xlink:href="#path3799"/><use id="use4241" width="744.094" height="1052.362" x="0" y="0" transform="matrix(.99891 0 0 .99891 -85.813 -90.248)" xlink:href="#path3799"/><use id="use4243" width="744.094" height="1052.362" x="0" y="0" transform="matrix(.99334 0 0 .99334 -85.123 -57.76)" xlink:href="#path3799"/><use id="use4245" width="744.094" height="1052.362" x="0" y="0" transform="matrix(.99499 0 0 .99499 -79.552 -20.693)" xlink:href="#path3799"/><use id="use4247" width="744.094" height="1052.362" x="0" y="0" transform="matrix(1.006 0 0 1.006 -65.531 -152.48)" xlink:href="#path3799"/><use id="use4249" width="744.094" height="1052.362" x="0" y="0" transform="matrix(1.0035 0 0 1.0035 -57.106 -125.17)" xlink:href="#path3799"/><use id="use4251" width="744.094" height="1052.362" x="0" y="0" transform="matrix(.99665 0 0 .99665 -61.423 -100.02)" xlink:href="#path3799"/><use id="use4253" width="744.094" height="1052.362" x="0" y="0" transform="matrix(1.0035 0 0 1.0035 19.348 -39.208)" xlink:href="#path3799"/><use id="use4255" width="744.094" height="1052.362" x="0" y="0" opacity=".933" transform="matrix(1.0007 0 0 1.0007 -53.344 -7.1917)" xlink:href="#path3799"/><use id="use4257" width="744.094" height="1052.362" x="0" y="0" transform="matrix(.99466 0 0 .99466 -38.498 -26.853)" xlink:href="#path3799"/><use id="use4259" width="744.094" height="1052.362" x="0" y="0" opacity=".811" transform="matrix(.99347 0 0 .99347 -163.8 -8.5696)" xlink:href="#path3799"/><use id="use4261" width="744.094" height="1052.362" x="0" y="0" opacity=".933" transform="matrix(.98896 0 0 .98896 -61.351 17.152)" xlink:href="#path3799"/><use id="use4263" width="744.094" height="1052.362" x="0" y="0" transform="matrix(1.0114 0 0 1.0114 -24.785 -116.1)" xlink:href="#path3799"/><use id="use4265" width="744.094" height="1052.362" x="0" y="0" transform="matrix(1.0018 0 0 1.0018 -36.14 -60.385)" xlink:href="#path3799"/><use id="use4267" width="744.094" height="1052.362" x="0" y="0" transform="matrix(1.0123 0 0 1.0123 -15.734 -37.732)" xlink:href="#path3799"/><use id="use4269" width="744.094" height="1052.362" x="0" y="0" transform="matrix(.99281 0 0 .99281 -55.254 -48.267)" xlink:href="#path3799"/><path id="path4389" fill="url(#radialGradient5013)" fill-rule="evenodd" stroke="url(#linearGradient5015)" stroke-width=".534" d="m124.03 182.68c0.93 1.02 1.68 4.27 1.43 7.46-0.05 0.6-0.03 1.18-0.04 1.76-0.07 2.66-2.49 7.41-3.56 9.33-3.2 5.77-8.95 9.39-12.75 13.71-2.33 2.65-4.1 6.65-5.99 10.06-1.67 3.01-1.85 6.46-2.07 9.26-0.55 7.13-1.228-1.66-1.637-3.52-1.142-5.18-1.037-11.87-1.876-17.34-0.492-3.21 0.182-5.94 0.922-9.54 0.146-0.71 0.265-1.42 0.397-2.12 0.816-4.37 2.974-7.59 5.304-10.23 2.7-3.07 4.98-4.91 7.72-5.19 3.28-15.53 19.23-32.81 12.15-3.64z"/><path id="path4383" fill="url(#radialGradient5008)" fill-rule="evenodd" stroke="url(#linearGradient5010)" stroke-width=".534" d="m127.81 183.87c-0.92 1.02-1.67 4.28-1.42 7.46 0.04 0.61 0.02 1.18 0.04 1.77 0.06 2.66 2.49 7.4 3.56 9.33 3.19 5.76 8.94 9.39 12.75 13.71 2.33 2.65 4.1 6.64 5.99 10.06 1.67 3.01 1.85 6.46 2.07 9.25 0.55 7.14 1.22-1.65 1.63-3.51 1.15-5.19 1.04-11.88 1.88-17.35 0.49-3.21-0.18-5.94-0.92-9.54-0.15-0.71-0.27-1.41-0.4-2.12-0.81-4.37-2.98-7.58-5.31-10.23-2.69-3.06-4.98-4.91-7.71-5.19-3.28-15.53-19.24-32.81-12.16-3.64z"/><path id="path4355" fill="url(#radialGradient5003)" fill-rule="evenodd" stroke="url(#linearGradient5005)" stroke-width=".71" d="m114.47 190.92c-1.5 1.06-3.62 5.2-4.5 9.57-0.17 0.83-0.4 1.6-0.6 2.4-0.9 3.6 0.31 10.81 0.9 13.77 1.77 8.83 7.45 15.64 10.5 22.74 1.87 4.35 2.55 10.33 3.6 15.57 0.93 4.61-0.13 9.33-0.9 13.17-1.96 9.8 2.12-1.83 3.3-4.19 3.32-6.61 5.66-15.66 8.71-22.75 1.78-4.16 1.97-8.07 2.4-13.17 0.08-1 0.2-2 0.3-2.99 0.61-6.16-0.84-11.22-2.7-15.57-2.17-5.03-4.27-8.29-7.51-9.58 1.74-22.03-11.36-50.66-13.5-8.97z"/><path id="path4551" fill="url(#linearGradient4998)" fill-rule="evenodd" stroke="url(#radialGradient5000)" stroke-width="1" d="m87.736 158.91c2.657-0.8 8.904-0.5 12.974 0.52 3.63 0.9 7.51 1.23 10.91 2.08 3.7 0.92 7.62 0.95 10.9 2.59 2.94 1.47 9.31-0.45 7.27 3.64-1.42 2.84-2.37 5.32-3.12 8.3-0.77 3.1-3.74 5.66-5.19 6.75-3.44 2.58-6.42-5.73-9.86-8.31-3.33-2.49-6.04-4.15-10.39-4.15-3.393 0-7.638-0.71-10.379-2.08-3.131-1.56-4.673-3.31-4.673-6.74 0-1.01 1.039-1.74 1.558-2.6z"/><path id="use4375" fill="url(#radialGradient4993)" fill-rule="evenodd" stroke="url(#linearGradient4995)" stroke-width=".71" d="m136.26 179.97c1.74 0.61 6.34-0.06 10.42-1.87 0.77-0.35 1.53-0.6 2.3-0.9 3.46-1.35 8.64-6.5 10.71-8.7 6.18-6.55 8.45-15.13 12.48-21.72 2.46-4.04 6.94-8.06 10.61-11.94 3.23-3.43 7.68-5.29 11.26-6.89 9.13-4.06-2.71-0.67-5.33-0.27-7.3 1.12-16.04 4.45-23.59 6.06-4.42 0.95-7.72 3.06-12.13 5.66-0.86 0.52-1.14 5.77-2.61 1.49-2.01-5.85-8.67 7.17-11.14 11.21-2.85 4.67-4.29 8.27-3.47 11.66-18.97 11.33-34.75 38.58 0.49 16.21z"/><path id="path4579" fill="#fff" fill-rule="evenodd" stroke="#d40000" stroke-width=".667" d="m112.6 234.59c-1.47 15.13 0.51 31.49 9.81 43.98-0.09 8.75 7.9 15.3 12.27 21.06 5.65 6.78 20.72 4.46 25.59 11.78-5.89-13.17-13.76-22.45-20.16-35.33-8.02-9.46-20.18-19.17-23.41-30.74-1.06-3.69-2.32-7.33-4.1-10.75z" filter="url(#filter4902)" opacity=".706"/></g><g id="g2899" transform="translate(-221.29 -49.537)"><path id="path3403" fill="#630e02" fill-rule="evenodd" stroke="url(#radialGradient2721)" stroke-width="1" d="m324.54 503.97c40.44-0.02 72.92 34.37 82.98 71.51 10.96 36.26 2.73 80.46-28.22 104.52-16.69 11.58-36.47 18.07-55.91 23.46-28.22 7.55-62.62 4.37-82.31-19.58-23.69-28.17-20.59-69.96-3.88-100.79 13.36-26.04 31.04-51.03 54.95-68.31 9.68-6.17 20.84-10.33 32.39-10.81z" filter="url(#filter3415)" transform="matrix(.99985 0 0 1.0593 312.52 -200.43)"/><path id="path3779" fill="url(#radialGradient5161)" d="m231.12 517.23c0 2.03-2.24 3.68-5 3.68s-5-1.65-5-3.68 2.24-3.67 5-3.67 5 1.64 5 3.67z" filter="url(#filter3116)" transform="matrix(-.55759 -.57822 .81710 -.13177 292.7 524.98)"/><path id="path3783" fill="url(#radialGradient5161)" d="m231.12 517.23c0 2.03-2.24 3.68-5 3.68s-5-1.65-5-3.68 2.24-3.67 5-3.67 5 1.64 5 3.67z" filter="url(#filter3116)" opacity=".789" transform="matrix(-.72793 -.75467 1.068 -.17319 159.86 607.08)"/><path id="path3823" fill="url(#radialGradient5161)" d="m231.12 517.23c0 2.03-2.24 3.68-5 3.68s-5-1.65-5-3.68 2.24-3.67 5-3.67 5 1.64 5 3.67z" filter="url(#filter3116)" opacity=".761" transform="matrix(-.72793 -.75467 1.068 -.17319 277.71 616.54)"/><path id="path3827" fill="url(#radialGradient5161)" d="m231.12 517.23c0 2.03-2.24 3.68-5 3.68s-5-1.65-5-3.68 2.24-3.67 5-3.67 5 1.64 5 3.67z" filter="url(#filter3116)" opacity=".761" transform="matrix(-.72793 -.75467 1.068 -.17319 260.86 630.89)"/><path id="path3835" fill="url(#radialGradient5161)" d="m231.12 517.23c0 2.03-2.24 3.68-5 3.68s-5-1.65-5-3.68 2.24-3.67 5-3.67 5 1.64 5 3.67z" filter="url(#filter3116)" transform="matrix(-.48789 -.50880 .69562 -.097302 350.38 529.94)"/><path id="path3924" fill="url(#radialGradient5161)" d="m231.12 517.23c0 2.03-2.24 3.68-5 3.68s-5-1.65-5-3.68 2.24-3.67 5-3.67 5 1.64 5 3.67z" filter="url(#filter3116)" opacity=".789" transform="matrix(-.55759 -.57822 .81710 -.13177 279.42 534.85)"/><path id="path3928" fill="url(#radialGradient5161)" d="m231.12 517.23c0 2.03-2.24 3.68-5 3.68s-5-1.65-5-3.68 2.24-3.67 5-3.67 5 1.64 5 3.67z" filter="url(#filter3116)" opacity=".789" transform="matrix(-.55759 -.57822 .81710 -.13177 298.38 541.84)"/><path id="path3972" fill="url(#radialGradient5161)" d="m231.12 517.23c0 2.03-2.24 3.68-5 3.68s-5-1.65-5-3.68 2.24-3.67 5-3.67 5 1.64 5 3.67z" filter="url(#filter3116)" opacity=".789" transform="matrix(-.55759 -.57822 .81710 -.13177 242.8 562.54)"/><path id="path3976" fill="url(#radialGradient5161)" d="m231.12 517.23c0 2.03-2.24 3.68-5 3.68s-5-1.65-5-3.68 2.24-3.67 5-3.67 5 1.64 5 3.67z" filter="url(#filter3116)" opacity=".789" transform="matrix(-.55759 -.57822 .81710 -.13177 237.12 554.06)"/><path id="path3980" fill="url(#radialGradient5161)" d="m231.12 517.23c0 2.03-2.24 3.68-5 3.68s-5-1.65-5-3.68 2.24-3.67 5-3.67 5 1.64 5 3.67z" filter="url(#filter3116)" transform="matrix(-.55759 -.57822 .81710 -.13177 282.23 567.36)"/><path id="path3984" fill="url(#radialGradient5161)" d="m231.12 517.23c0 2.03-2.24 3.68-5 3.68s-5-1.65-5-3.68 2.24-3.67 5-3.67 5 1.64 5 3.67z" filter="url(#filter3116)" opacity=".789" transform="matrix(-.55759 -.57822 .81710 -.13177 264.36 562.61)"/><path id="path3988" fill="url(#radialGradient5161)" d="m231.12 517.23c0 2.03-2.24 3.68-5 3.68s-5-1.65-5-3.68 2.24-3.67 5-3.67 5 1.64 5 3.67z" filter="url(#filter3116)" opacity=".789" transform="matrix(-.55759 -.57822 .81710 -.13177 286.55 551.4)"/><path id="path3992" fill="url(#radialGradient5161)" d="m231.12 517.23c0 2.03-2.24 3.68-5 3.68s-5-1.65-5-3.68 2.24-3.67 5-3.67 5 1.64 5 3.67z" filter="url(#filter3116)" opacity=".789" transform="matrix(-.55759 -.57822 .81710 -.13177 264.84 532.51)"/><path id="path3996" fill="url(#radialGradient5161)" d="m231.12 517.23c0 2.03-2.24 3.68-5 3.68s-5-1.65-5-3.68 2.24-3.67 5-3.67 5 1.64 5 3.67z" filter="url(#filter3116)" opacity=".789" transform="matrix(-.55759 -.57822 .81710 -.13177 270.24 547.87)"/><path id="path4020" fill="url(#radialGradient5161)" d="m231.12 517.23c0 2.03-2.24 3.68-5 3.68s-5-1.65-5-3.68 2.24-3.67 5-3.67 5 1.64 5 3.67z" filter="url(#filter3116)" opacity=".789" transform="matrix(-.55759 -.57822 .81710 -.13177 227.39 568.49)"/><path id="path4024" fill="url(#radialGradient5161)" d="m231.12 517.23c0 2.03-2.24 3.68-5 3.68s-5-1.65-5-3.68 2.24-3.67 5-3.67 5 1.64 5 3.67z" filter="url(#filter3116)" opacity=".789" transform="matrix(-.55759 -.57822 .81710 -.13177 258.82 576.54)"/><path id="path4028" fill="url(#radialGradient5161)" d="m231.12 517.23c0 2.03-2.24 3.68-5 3.68s-5-1.65-5-3.68 2.24-3.67 5-3.67 5 1.64 5 3.67z" filter="url(#filter3116)" transform="matrix(-.55759 -.57822 .81710 -.13177 277.66 579.44)"/><path id="path4032" fill="url(#radialGradient5161)" d="m231.12 517.23c0 2.03-2.24 3.68-5 3.68s-5-1.65-5-3.68 2.24-3.67 5-3.67 5 1.64 5 3.67z" filter="url(#filter3116)" transform="matrix(-.55759 -.57822 .81710 -.13177 299.66 577.61)"/><path id="path4036" fill="url(#radialGradient5161)" d="m231.12 517.23c0 2.03-2.24 3.68-5 3.68s-5-1.65-5-3.68 2.24-3.67 5-3.67 5 1.64 5 3.67z" filter="url(#filter3116)" opacity=".761" transform="matrix(-.55759 -.57822 .81710 -.13177 325.26 582.43)"/><path id="path4040" fill="url(#radialGradient5161)" d="m231.12 517.23c0 2.03-2.24 3.68-5 3.68s-5-1.65-5-3.68 2.24-3.67 5-3.67 5 1.64 5 3.67z" filter="url(#filter3116)" opacity=".761" transform="matrix(-.55759 -.57822 .81710 -.13177 330.08 570.65)"/><path id="path4044" fill="url(#radialGradient5161)" d="m231.12 517.23c0 2.03-2.24 3.68-5 3.68s-5-1.65-5-3.68 2.24-3.67 5-3.67 5 1.64 5 3.67z" filter="url(#filter3116)" opacity=".761" transform="matrix(-.55759 -.57822 .81710 -.13177 317.43 573.23)"/><path id="path4048" fill="url(#radialGradient5161)" d="m231.12 517.23c0 2.03-2.24 3.68-5 3.68s-5-1.65-5-3.68 2.24-3.67 5-3.67 5 1.64 5 3.67z" filter="url(#filter3116)" transform="matrix(-.55759 -.57822 .81710 -.13177 314.48 558.34)"/><path id="path4052" fill="url(#radialGradient5161)" d="m231.12 517.23c0 2.03-2.24 3.68-5 3.68s-5-1.65-5-3.68 2.24-3.67 5-3.67 5 1.64 5 3.67z" filter="url(#filter3116)" opacity=".761" transform="matrix(-.55759 -.57822 .81710 -.13177 337.09 559.05)"/><path id="path4056" fill="url(#radialGradient5161)" d="m231.12 517.23c0 2.03-2.24 3.68-5 3.68s-5-1.65-5-3.68 2.24-3.67 5-3.67 5 1.64 5 3.67z" filter="url(#filter3116)" transform="matrix(-.55759 -.57822 .81710 -.13177 320.79 541.7)"/><path id="path4242" fill="url(#radialGradient5161)" d="m231.12 517.23c0 2.03-2.24 3.68-5 3.68s-5-1.65-5-3.68 2.24-3.67 5-3.67 5 1.64 5 3.67z" filter="url(#filter3116)" opacity=".761" transform="matrix(-.55759 -.57822 .81710 -.13177 374.44 573.43)"/><path id="path3283" fill="url(#radialGradient2849)" fill-rule="evenodd" stroke="url(#radialGradient2849)" stroke-width="1" d="m613.13 333.43c18.99 2.59 34.89 14.81 53.29 19.31 15.44 29.75 16.26 41 32.25 56.95 7 19.74 2.78 37.9 6.35 58.09-0.62 19.82-24.28 34.96-42.01 37.94-15.52 16.62-39.69 22.69-61.7 18.86-21.26 1.27-40.56 19.26-62.34 11.99-18.2-8.77-21.51-31.16-24.76-49-5.12-25.29 4.55-50.49 13.33-73.8 9.09-19.5 23.75-35.51 37.13-52.1-0.16-14.67 14.89-21.58 27.38-23.09 7.13-1.29 14.27-2.73 21.08-5.15z"/><path id="path2287" fill="url(#radialGradient2844)" fill-rule="evenodd" stroke="url(#linearGradient2846)" stroke-width="2.8" d="m566.44 331.44c-12.6 5.97-27.85 9.29-31.83 15.92s-15.25 32.49-18.57 41.77c-1.29 3.63-5.32 15.37-9.12 27.24-4.1 12.81-8.09 25.71-8.78 28.46-1.33 5.31-3.98 18.57-7.29 25.87-2.35 5.15 0 8.62-2.66 13.26-2.65 4.64-1.32 11.27-1.32 11.27s-5.31 4.64-3.98 9.28c1.32 4.65 6.63 13.27 6.63 13.27s3.31 7.95 6.63 9.94 9.28 2.66 9.28 2.66 5.97 5.3 13.93 5.96c7.96 0.67 31.83 3.32 37.13 0.67 5.31-2.66 8.62-3.98 12.6-4.65 3.98-0.66 9.95-3.31 13.26-4.64 3.32-1.32 3.98-3.98 11.28-2.65 7.29 1.33 11.27-0.66 15.25-1.99 3.98-1.32 7.96-2.65 12.6-2.65s7.96-0.66 11.27-2.65c3.32-1.99 9.95-3.98 15.92-4.65 5.96-0.66 14.58-4.64 17.9-7.95 3.32-3.32 5.97-7.3 11.94-11.28 5.96-3.97 9.94-7.29 11.93-11.93s5.31-15.92 5.31-19.89c0-3.98 2.65-12.6 2.65-12.6s0.66-5.31-0.66-8.62c-1.33-3.32-2.66-10.61-2.66-14.59s-1.99-6.63-2.65-9.29c-0.66-2.65-1.33-8.62-3.98-13.92-2.65-5.31-9.28-13.93-9.28-13.93l-5.31-3.98-3.31-10.6s-12.6-15.92-17.24-19.9-17.24-11.93-22.55-14.59c-5.3-2.65-22.54-10.61-29.18-12.6-6.63-1.99-17.9-1.99-21.88-1.99s-11.93 3.32-13.26 5.97z"/><path id="path2289" fill="url(#radialGradient2861)" fill-rule="evenodd" d="m314.31 523.86c-31.06-19.04-70.66 1.59-86.68 30.86-13.24 31.05-33.26 60.56-36.38 94.94-5.1 22.22 14.64 42.05 36.66 39.72 13.23-0.64 21.96-7.62 34.63-11.21 11.67 7.58 32.65-4.91 47.36-7.43 25.89-5.81 56.21-20.84 58.75-50.66 6.13-38.83-13.68-85.76-54.34-96.22z" filter="url(#filter3492)" opacity=".85" transform="matrix(1.107 0 0 1.1409 284.46 -253.54)"/><path id="path3202" fill="url(#radialGradient5149)" fill-rule="evenodd" d="m340.98 536c-16.44-19.07-18.27-5.81-35.96-5.27-5.54 0.93-12.89 0.4-16.05 6.03-3.87 6.48 3.49 14.98 10.44 12.57 9.99-1.63 26.99 12.65 32.32 19.7 5.29 7.18 9.58 12.51 19.3 10.17 6.25-3.87 7.9-4.03 14.53-5.82-3.37-5.07 1.62-10.21-1.07-16.22-2.61-5.08-7.54-19.81-16.95-25.33 1.37 3.75-0.64 3.18-6.56 4.17z" filter="url(#filter3373)" transform="matrix(1.0483 0 0 1 298.56 -170.54)"/><path id="path2291" fill="url(#radialGradient2837)" fill-rule="evenodd" stroke="url(#radialGradient2839)" stroke-width="1" d="m651.98 419.64c0 3.77 3.98-6.84 3.98-10.61 0-5.07-5.4-6.33-9.28-7.3-5.12-1.28-10.04-8.04-13.27-11.27-3.62-3.63 0.13-8.1-0.66-11.27-0.55-2.19-8.04-1.99-9.95-1.99-5.01 0-8.62 1.49-13.26 2.65-4.57 1.14-7.93 4.61-11.27 7.96-3.46 3.45-5.82 6.98-7.96 11.27-2.24 4.49-5.18 7.71-7.29 11.94-2 3.99-4.87 8.69-7.3 11.93-3.08 4.12-5.69 7.42-9.94 10.61-3.1 2.32-6.78 9.26-9.29 12.6-2.65 3.54-5.34 7.34-8.62 10.61-3.86 3.87-7.4 7.41-11.27 11.27-2.84 2.84-5.22 7.21-8.62 10.61-3.01 3.01-5.6 6.8-7.96 9.95-2.6 3.47-6.07 8.17-7.29 10.61-0.11 0.22 10.7-1.71 11.27-1.99 3.88-1.94 6.45-5.59 10.61-6.63 4.54-1.14 9.62-4.25 13.93-5.97 5.11-2.04 10.13-6.06 15.25-8.62 5.49-2.75 9.49-6.31 15.25-8.62 4.74-1.9 8.88-4.21 13.26-5.97 4.82-1.93 9.27-4.8 13.93-5.97 4.83-1.2 9.11-4.1 13.92-5.3 4.6-1.15 7.91-4.35 10.61-7.96 2.74-3.65 5.32-6.66 7.3-10.61 1.29-2.59 7.95-5.8 9.94-7.29 1.56-1.17 2.89-3.19 3.98-4.64z" filter="url(#filter2990)" opacity=".972"/><path id="path2295" fill="url(#radialGradient2834)" fill-rule="evenodd" d="m571.75 343.46c-0.55 11.3 14.93 40.33 23.73 25.02-13.45-1.16-16.22-16.59-23.73-25.02zm-29.84 16.63c7.33 12.71 60.35 38.48 31 15.29-8.96-7.67-19.74-12.22-31-15.29zm76.72 10.28c-30.59-2.13-39.38 33.23-56.81 51.16-3.69 30-48.69-1.4-47.93 10.2 18.81 2.68 51.87 3.57 23.71 25.11-4.7 21.51-38.16 22.3-40.46 23.18 15.69 0.37 32.27-0.37 14.2 14.84-17.46-4.66-27.56 5.76-3.5 1.25 15.07 8.02-37.76 9.82-9.56 12.65 16-7.62 20.38 5.91 17.39 7.18-7.31-25.88 20.32-5.84 33.89-19.76-14.26 8.37-14.21 47.34-6.02 13.16 15.07-18.94 5.94 34.37 10.04 3.28 2.41-27.83 28.43-41.32 51.98-50.66 30.83-11.83 45.5 10.24 61.32 33.83-18.13-23.93-35.15-49.54-7.43-75.32 9.56-23.48-22.28-35.29-35.67-49.46l-5.15-0.64zm-57.6 124.09c3.18 0.63 0.41-2.03 0 0zm55.03-104.53c31.34-3.8 55.04 17.45 26.45 36.76-21.79 19.81-27.57 26.6-55.34 39.36-22.56 5.25-55.21 37.7-69.31 28.52 17.61-20.61 48.57-48.41 64.02-71.22 11.66-10.3 17.39-28.08 34.18-33.42zm-84.53-8.13c-9.07 22.37 61.55 26.55 22.06 10.15-7.73-2.63-14.06-8.34-22.06-10.15zm38.22 17.94l-0.69 0.75 0.69-0.75zm-5.31 11.94c-1.03 1.24 1.42 0.22 0 0zm-0.03 0.62c-14.5-0.82-71.56-0.35-27.82 6 9.06-1.24 24.02 6.89 27.82-6zm55.03 51.57c-6.27 15.46 17.18 69.03 13.13 26.24-2.3-9.43-4.87-20.14-13.13-26.24zm-18.47 1.53c3.01 10.93-6.63 52.69 3.88 45.68 1.27-13.89 7.03-35.02-3.88-45.68z" filter="url(#filter3399)" opacity=".589"/><path id="path2319" fill="url(#radialGradient5157)" d="m389.43 629.69c0 2.03-2.24 3.68-5.01 3.68-2.76 0-5-1.65-5-3.68s2.24-3.68 5-3.68c2.77 0 5.01 1.65 5.01 3.68z" filter="url(#filter3116)" transform="matrix(.53152 0 0 .49008 494.91 148.68)"/><path id="path3120" fill="url(#radialGradient5159)" d="m286.83 692.29c0 2.03-2.25 3.68-5.01 3.68s-5-1.65-5-3.68 2.24-3.67 5-3.67 5.01 1.64 5.01 3.67z" filter="url(#filter3116)" transform="matrix(.62522 0 0 .61756 419.97 95.629)"/><path id="path3124" fill="url(#radialGradient5161)" d="m231.12 517.23c0 2.03-2.24 3.68-5 3.68s-5-1.65-5-3.68 2.24-3.67 5-3.67 5 1.64 5 3.67z" filter="url(#filter3116)" transform="matrix(.61748 -.47808 .58446 .50510 97.326 192.22)"/><path id="path3128" fill="url(#radialGradient5161)" d="m231.12 517.23c0 2.03-2.24 3.68-5 3.68s-5-1.65-5-3.68 2.24-3.67 5-3.67 5 1.64 5 3.67z" filter="url(#filter3116)" transform="matrix(.61748 -.47808 .58446 .50510 50.909 324.18)"/><path id="path3132" fill="url(#radialGradient5161)" d="m231.12 517.23c0 2.03-2.24 3.68-5 3.68s-5-1.65-5-3.68 2.24-3.67 5-3.67 5 1.64 5 3.67z" filter="url(#filter3116)" transform="matrix(.77821 .065059 .089301 .76729 326.38 124.76)"/><path id="path3136" fill="url(#radialGradient5161)" d="m231.12 517.23c0 2.03-2.24 3.68-5 3.68s-5-1.65-5-3.68 2.24-3.67 5-3.67 5 1.64 5 3.67z" filter="url(#filter3116)" transform="matrix(-.093960 -.77525 .73329 -.24291 146.74 730.52)"/><path id="path3140" fill="url(#radialGradient5161)" d="m231.12 517.23c0 2.03-2.24 3.68-5 3.68s-5-1.65-5-3.68 2.24-3.67 5-3.67 5 1.64 5 3.67z" filter="url(#filter3116)" transform="matrix(-.093960 -.77525 .73329 -.24291 209.07 634.37)"/><path id="path3182" fill="#ffd5d5" fill-rule="evenodd" d="m615.51 421.63c-1.28 1.76-5.1 7.52-8.62 9.28-5.43 2.71-4.47 1.95-5.97 7.96-1.11 4.45-7.41 5.03-10.61 6.63-5.53 2.77-5.99 3.46-6.63 6.63-0.82 4.09 6.56-5.62 10.61-6.63 3.96-0.99 7.57-5.68 10.61-7.96 4.79-3.59 5.43-3.26 6.63-9.28 0.5-2.51 2.45-4.73 3.98-6.63z" filter="url(#filter3188)"/><g id="g3274" transform="translate(312.47 -170.54)"><path id="path3144" fill="url(#radialGradient5171)" fill-rule="evenodd" d="m302.38 590.84c-1.28 1.76-5.1 7.52-8.62 9.28-5.43 2.72-4.47 1.95-5.97 7.96-1.11 4.45-7.41 5.03-10.61 6.63-5.54 2.77-6 3.46-6.63 6.63-0.82 4.09 6.56-5.62 10.61-6.63 3.96-0.99 7.57-5.68 10.61-7.96 4.79-3.59 5.42-3.26 6.63-9.28 0.5-2.5 2.45-4.72 3.98-6.63z" filter="url(#filter3270)" opacity=".561"/></g><g id="g3277" opacity=".506" transform="matrix(-1 0 0 -1 845.55 1063.9)"><path id="path3279" fill="url(#radialGradient5171)" fill-rule="evenodd" d="m302.38 590.84c-1.28 1.76-5.1 7.52-8.62 9.28-5.43 2.72-4.47 1.95-5.97 7.96-1.11 4.45-7.41 5.03-10.61 6.63-5.54 2.77-6 3.46-6.63 6.63-0.82 4.09 6.56-5.62 10.61-6.63 3.96-0.99 7.57-5.68 10.61-7.96 4.79-3.59 5.42-3.26 6.63-9.28 0.5-2.5 2.45-4.72 3.98-6.63z" filter="url(#filter3270)" opacity=".561"/></g><path id="path3301" fill="url(#radialGradient5175)" d="m384.74 635.31c0 2.03-2.24 3.68-5.01 3.68-2.76 0-5-1.65-5-3.68s2.24-3.67 5-3.67c2.77 0 5.01 1.64 5.01 3.67z" filter="url(#filter3116)" transform="matrix(.34413 0 0 .61756 569.5 36.326)"/><path id="path3305" fill="url(#radialGradient5175)" d="m384.74 635.31c0 2.03-2.24 3.68-5.01 3.68-2.76 0-5-1.65-5-3.68s2.24-3.67 5-3.67c2.77 0 5.01 1.64 5.01 3.67z" filter="url(#filter3116)" transform="matrix(.34413 0 0 .61756 559.18 100.1)"/><path id="path3496" fill="url(#radialGradient5157)" d="m389.43 629.69c0 2.03-2.24 3.68-5.01 3.68-2.76 0-5-1.65-5-3.68s2.24-3.68 5-3.68c2.77 0 5.01 1.65 5.01 3.68z" filter="url(#filter3116)" transform="matrix(.53152 0 0 .49008 494.91 148.68)"/></g></g><metadata/></svg>