<svg xmlns="http://www.w3.org/2000/svg" xmlns:ns1="http://sozi.baierouge.fr" xmlns:svg="http://www.w3.org/2000/svg" xmlns:xlink="http://www.w3.org/1999/xlink" id="svg2" version="1.1" viewBox="0 0 209.23 169.99"><defs id="defs4"><linearGradient id="linearGradient3094"><stop id="stop3098" offset="0" style="stop-color:#abc837"/><stop id="stop4008" offset=".5" style="stop-color:#77a02c"/><stop id="stop3096" offset="1" style="stop-color:#447821;stop-opacity:0"/></linearGradient><linearGradient id="linearGradient3100" x1="19.407" x2="90.567" y1="459.98" y2="459.98" gradientTransform="matrix(.82090 0 0 1 60.747 42.609)" gradientUnits="userSpaceOnUse" xlink:href="#linearGradient3094"/><linearGradient id="linearGradient3106" x1="19.407" x2="90.567" y1="459.98" y2="459.98" gradientTransform="matrix(.66393 .40778 -.45573 .88159 313.17 -94.523)" gradientUnits="userSpaceOnUse" xlink:href="#linearGradient3094"/><linearGradient id="linearGradient3110" x1="19.407" x2="90.567" y1="459.98" y2="459.98" gradientTransform="matrix(.70557 -.41957 .51111 .85952 -108.07 243.8)" gradientUnits="userSpaceOnUse" xlink:href="#linearGradient3094"/><linearGradient id="linearGradient3114" x1="19.407" x2="90.567" y1="459.98" y2="459.98" gradientTransform="matrix(.34275 -.67029 .75656 .45064 -105.2 575.6)" gradientUnits="userSpaceOnUse" xlink:href="#linearGradient3094"/><linearGradient id="linearGradient3118" x1="19.407" x2="90.567" y1="459.98" y2="459.98" gradientTransform="matrix(.49168 -.13794 .11163 .98560 5.0177 138.09)" gradientUnits="userSpaceOnUse" xlink:href="#linearGradient3094"/><linearGradient id="linearGradient3122" x1="19.407" x2="90.567" y1="459.98" y2="459.98" gradientTransform="matrix(.54708 .19298 -.32690 1.0091 206.72 -59.226)" gradientUnits="userSpaceOnUse" xlink:href="#linearGradient3094"/><linearGradient id="linearGradient3126" x1="19.407" x2="90.567" y1="459.98" y2="459.98" gradientTransform="matrix(.31013 -.37392 .62935 .70361 -148.69 401.09)" gradientUnits="userSpaceOnUse" xlink:href="#linearGradient3094"/><linearGradient id="linearGradient3142" x1="19.407" x2="90.567" y1="459.98" y2="459.98" gradientTransform="matrix(-.67724 -.46391 .56513 -0.825 347.26 1042.8)" gradientUnits="userSpaceOnUse" xlink:href="#linearGradient3094"/><linearGradient id="linearGradient3144" x1="19.407" x2="90.567" y1="459.98" y2="459.98" gradientTransform="matrix(-.36666 -.64746 .75862 -.46439 122.12 1001)" gradientUnits="userSpaceOnUse" xlink:href="#linearGradient3094"/><linearGradient id="linearGradient3146" x1="19.407" x2="90.567" y1="459.98" y2="459.98" gradientTransform="matrix(-.81921 -.052594 .064069 -.99795 652.85 965.03)" gradientUnits="userSpaceOnUse" xlink:href="#linearGradient3094"/><linearGradient id="linearGradient3148" x1="19.407" x2="90.567" y1="459.98" y2="459.98" gradientTransform="matrix(-.63191 .30862 -.17641 -.97348 741.61 796.19)" gradientUnits="userSpaceOnUse" xlink:href="#linearGradient3094"/><linearGradient id="linearGradient3150" x1="19.407" x2="106.96" y1="459.98" y2="460.2" gradientTransform="matrix(-.48359 -.16406 .46490 -.87621 475.99 1012)" gradientUnits="userSpaceOnUse"><stop id="stop4012" offset="0" style="stop-color:#abc837"/><stop id="stop4014" offset=".68" style="stop-color:#77a02c"/><stop id="stop4016" offset="1" style="stop-color:#447821;stop-opacity:0"/></linearGradient><linearGradient id="linearGradient3152" x1="19.407" x2="90.567" y1="459.98" y2="459.98" gradientTransform="matrix(-.31155 -.43208 .76613 -.59874 214 1038.8)" gradientUnits="userSpaceOnUse" xlink:href="#linearGradient3094"/><linearGradient id="linearGradient3154" x1="19.407" x2="90.567" y1="459.98" y2="459.98" gradientTransform="matrix(-.46717 .13322 -.12159 -.93615 745.93 863.34)" gradientUnits="userSpaceOnUse" xlink:href="#linearGradient3094"/><linearGradient id="linearGradient3158" x1="19.407" x2="90.567" y1="459.98" y2="459.98" gradientTransform="matrix(.22384 .46293 -.92083 .46523 672.78 66.111)" gradientUnits="userSpaceOnUse" xlink:href="#linearGradient3094"/><linearGradient id="linearGradient3162" x1="19.407" x2="90.567" y1="459.98" y2="459.98" gradientTransform="matrix(-.33714 .47210 -.87887 -.59394 873.93 553.79)" gradientUnits="userSpaceOnUse" xlink:href="#linearGradient3094"/><radialGradient id="radialGradient3968" cx="440.71" cy="510.22" r="152.63" gradientTransform="matrix(1.3104 .022857 -.031022 1.7786 -106.08 -416.01)" gradientUnits="userSpaceOnUse"><stop id="stop3964" offset="0" style="stop-color:#447821"/><stop id="stop3970" offset=".808" style="stop-color:#447821"/><stop id="stop3966" offset="1" style="stop-color:#2d5016"/></radialGradient><radialGradient id="radialGradient3968-6" cx="328.47" cy="517.92" r="197.28" gradientTransform="matrix(1.3202 .75153 -.76586 1.3454 331.03 -484.29)" gradientUnits="userSpaceOnUse"><stop id="stop3964-1" offset="0" style="stop-color:#447821"/><stop id="stop3970-6" offset=".808" style="stop-color:#447821"/><stop id="stop3966-1" offset="1" style="stop-color:#2d5016"/></radialGradient><radialGradient id="radialGradient4061" cx="263.96" cy="805.51" r="425.26" gradientTransform="matrix(1 0 0 .23563 0 615.71)" gradientUnits="userSpaceOnUse"><stop id="stop4055" offset="0" style="stop-color:#000"/><stop id="stop4057" offset="1" style="stop-color:#000;stop-opacity:0"/></radialGradient><radialGradient id="radialGradient4083" cx="312.14" cy="560.73" r="74.134" gradientTransform="matrix(1 0 0 1.1579 0 -88.537)" gradientUnits="userSpaceOnUse"><stop id="stop4079" offset="0" style="stop-color:#fff"/><stop id="stop4081" offset="1" style="stop-color:#fff;stop-opacity:0"/></radialGradient><radialGradient id="radialGradient4087" cx="353.96" cy="454.7" r="264.29" gradientTransform="matrix(1 0 0 .94595 0 27.772)" gradientUnits="userSpaceOnUse"><stop id="stop3170" offset="0" style="stop-color:#775200"/><stop id="stop4041" offset=".757" style="stop-color:#451e03"/><stop id="stop3172" offset="1" style="stop-color:#28170b"/></radialGradient><radialGradient id="radialGradient4102" cx="372.63" cy="784.07" r="28.455" gradientTransform="matrix(1 0 0 .76190 0 186.68)" gradientUnits="userSpaceOnUse"><stop id="stop4098" offset="0" style="stop-color:#2d1809"/><stop id="stop4100" offset="1" style="stop-color:#2d1809;stop-opacity:0"/></radialGradient></defs><g id="layer1" transform="translate(-3.2705 -14.366)"><g id="g4353" transform="matrix(.27507 0 0 .27507 5.6717 -51.201)"><path id="path4051" d="m689.22 805.51c0 55.342-190.4 100.21-425.26 100.21-234.87 0-425.26-44.864-425.26-100.21 0-55.342 190.4-100.21 425.26-100.21 234.87 0 425.26 44.864 425.26 100.21z" transform="matrix(.86479 0 0 .72997 150.78 195.21)" style="color:#000;fill:url(#radialGradient4061)"/><path id="path3160" d="m494.85 238.37c-21.92 39.675-43.754 79.342-34.421 115.97l-73.841-52.996c51.639 3.1424 73.32-40.206 108.26-62.975z" style="fill:url(#linearGradient3162)"/><path id="path3156" d="m226.76 242.7c21.958 33.749 43.951 67.424 78.729 74.808l-79.917 37.83c27.923-40.241 2.8196-75.29 1.1883-112.64z" style="fill:url(#linearGradient3158)"/><path id="path4089" d="m636.92 524.12c0 147.96-124.14 267.91-277.28 267.91s-277.28-119.95-277.28-267.91 124.14-267.91 277.28-267.91c4.6986 0 8.3537 16.856 12.995 17.079 4.2103 0.20247 9.4122-16.247 13.571-15.865 140.67 12.92 250.71 127.39 250.71 266.7z" style="color:#000;fill:#2d5016"/><path id="path2985" d="m625.71 513.79c0 138.07-118.32 250-264.29 250-145.96 0-264.29-111.93-264.29-250s118.32-250 264.29-250c145.96 0 264.29 111.93 264.29 250z" transform="matrix(.93514 0 0 .98353 19.714 4.9754)" style="color:#000;fill:url(#radialGradient4087)"/><path id="path4075" d="m386.28 560.73c0 47.408-33.191 85.84-74.134 85.84s-74.134-38.432-74.134-85.84 33.191-85.84 74.134-85.84 74.134 38.432 74.134 85.84z" transform="matrix(1.4211 0 0 1.3983 -45.59 -329.63)" style="color:#000;fill-opacity:.64158;fill:url(#radialGradient4083)"/><path id="path3065" d="m535.24 373.77c0.32239 52.086-69.214 51.709-164.06 67.913-88.83 15.176-164.06-14.595-164.06-67.913s73.454-96.541 164.06-96.541c90.609 0 163.73 43.224 164.06 96.541z" style="color:#000;fill:#b5a98a"/><path id="path3176" d="m198.06 331.41 47.113-3.2323c-49.17 112.35-20.01 291.77 119.18 397.29l-102.15-56.47-100.45-210.91z" style="fill-opacity:.34409;fill:#000"/><path id="path3946" d="m539.35 347.99-27.438-9.2192c38.525 121.25-7.1779 304.45-155.58 400.38l106.96-48.66 119.61-208.96z" style="fill-opacity:.34409;fill:#000"/><path id="path3074" d="m230.3 306.84c-75.373 133.28-14.462 417.87 198.99 442.28-1.448 0.56721-2.8982 1.1542-4.3576 1.698-149.73-0.26-244.27-154.41-245.95-325.97-0.49664-50.8 12.648-107.03 28.474-150.69 19.975 7.9044 14.144 25.115 22.843 32.682z" style="color:#000;fill:#decd87"/><path id="path3069" d="m208.93 273.79c-92.68 48.96-151.84 154.26-141.06 269.24 13.998 149.19 140.43 258.18 282.38 243.47 50.7-5.2521 96.512-25.563 133.84-56.319-15.963 6.9032-32.861 11.412-50.481 13.237-124.03 12.85-236.71-115.8-252.47-283.83-6.4829-69.116 9.5211-128.61 27.794-185.8z" style="color:#000;fill:url(#radialGradient3968-6)"/><path id="path3082" d="m-8.7295 506.4c63.904-4.92 127.73-9.91 163.29-37.14l-3.6287 85.714c-37.24-41.35-105.26-34.23-159.66-48.57z" style="fill:url(#linearGradient3100)"/><path id="path3084" d="m549.48 329.14c45.77 124.86-12.42 330.95-183.47 409.01 156.4 33.65 212.55-207.01 220.34-289.17 3.7566-50.664-5.8055-107.61-18.861-152.18-20.52 6.6225-16.944 25.845-18.015 32.335z" style="color:#000;fill:#decd87"/><path id="path3086" d="m565.46 295.71c83.29 50.563 130.34 156.35 110.7 270.29-60.489 151.84-182.3 263.96-321.19 219.28 3.6881-13.685 14.799-36.913 19.541-42.052 104.1-39.066 187.03-181.61 202.17-259.62 11.806-68.483 6.8172-133.73-11.215-187.9z" style="color:#000;fill:url(#radialGradient3968)"/><path id="path3104" d="m45.608 279.84c53.929 27.406 107.82 54.719 149 48.372l-42 73.76c-11.28-54.96-69.539-82.47-107-122.13z" style="fill:url(#linearGradient3106)"/><path id="path3108" d="m69.258 677.94c52.412-36.89 104.72-73.79 121.37-115.38l40.69 75.527c-53.15-16.51-107.98 24.37-162.06 39.85z" style="fill:url(#linearGradient3110)"/><path id="path3112" d="m216.68 841.33c22.959-54.398 45.839-108.76 40.08-150.07l63.333 41.589c-46.836 11.775-69.853 70.527-103.41 108.48z" style="fill:url(#linearGradient3114)"/><path id="path3116" d="m15.175 606.87c37.727-15.589 70.349-25.752 88.609-58.573l12.446 79.616c-26.924-34.5-66.873-16.06-101.06-21.05z" style="fill:url(#linearGradient3118)"/><path id="path3120" d="m8.8073 392.46c44.198 10.05 88.364 20.03 120.97 0.91l-30.443 85.64c-11.302-50.49-58.963-59.3-90.53-86.55z" style="fill:url(#linearGradient3122)"/><path id="path3124" d="m116.95 759.07c21.045-32.571 41.066-58.164 37.359-93.527l53.53 54.976c-40.096-12.132-61.314 23.861-90.889 38.551z" style="fill:url(#linearGradient3126)"/><path id="path3128" d="m666.68 699.42c-55.5-32.05-110.98-64.01-155.71-61.63l51.433-68.664c7.3562 55.163 67.499 87.732 104.28 130.3z" style="fill:url(#linearGradient3142)"/><path id="path3130" d="m504.99 840.38c-32.28-48.12-64.57-96.15-101.11-111.55l66.645-36.943c-14.736 48.578 21.048 98.925 34.468 148.49z" style="fill:url(#linearGradient3144)"/><path id="path3132" d="m751.9 506.64c-64.089 0.81744-128.1 1.7013-165.34 26.604l9.1128-85.306c34.517 43.654 102.86 40.908 156.22 58.701z" style="fill:url(#linearGradient3146)"/><path id="path3134" d="m713.28 318.58c-48.324 28.817-96.577 57.664-119.15 97.548l-12.328-84.805c35.964 26.254 87.071-6.2491 131.47-12.743z" style="fill:url(#linearGradient3148)"/><path id="path3136" d="m732.54 619.5c-39.935-8.4591-72.591-18.51-106.2-1.7517l34.725-72.717c2.7153 43.676 46.098 51.034 71.479 74.468z" style="fill:url(#linearGradient3150)"/><path id="path3138" d="m595.7 797.65c-28.03-30.69-56.07-61.3-90.43-63.71l67.046-49.411c-17.547 44.363 13.723 75.905 23.384 113.12z" style="fill:url(#linearGradient3152)"/><path id="path3140" d="m729.08 417.88c-35.769 14.978-66.749 24.778-83.676 56.048l-13.094-75.606c26.223 32.668 64.069 14.965 96.77 19.559z" style="fill:url(#linearGradient3154)"/><path id="path4094" d="m401.09 784.07c0 11.974-12.74 21.68-28.455 21.68s-28.455-9.7066-28.455-21.68c0-11.974 12.74-21.68 28.455-21.68s28.455 9.7066 28.455 21.68z" transform="matrix(2.2004 0 0 .81821 -457.37 136.56)" style="opacity:.71704;color:#000;fill:url(#radialGradient4102)"/></g></g><metadata/></svg>