<svg xmlns="http://www.w3.org/2000/svg" xmlns:cc="http://web.resource.org/cc/" xmlns:svg="http://www.w3.org/2000/svg" xmlns:xlink="http://www.w3.org/1999/xlink" id="svg2" version="1.0" viewBox="0 0 350 400"><defs id="defs4"><pattern id="pattern30614" patternTransform="matrix(.58999 0 0 .41356 1.7244 5.4391)" xlink:href="#pattern30609"/><pattern id="pattern30609" patternTransform="matrix(.58999 0 0 .41356 162.62 -160.56)" xlink:href="#pattern26663"/><linearGradient id="linearGradient15314"><stop id="stop15316" offset="0" stop-color="#1d3300"/><stop id="stop15318" offset=".496" stop-color="#68a02c" stop-opacity=".237"/><stop id="stop15320" offset="1" stop-color="#61a334" stop-opacity="0"/></linearGradient><filter id="filter7541" width="1.184" height="1.238" x="-.092" y="-.119"><feGaussianBlur id="feGaussianBlur7543" stdDeviation="10.988"/></filter><filter id="filter12154"><feGaussianBlur id="feGaussianBlur12156" stdDeviation="2.94"/></filter><filter id="filter13287"><feGaussianBlur id="feGaussianBlur13289" stdDeviation="5.807"/></filter><clipPath id="clipPath14282" clipPathUnits="userSpaceOnUse"><path id="path14284" fill="#6ea827" d="m100.84 272.89c-21.478 104.6-64.957 118.7-105.82 117-7.886-0.33-7.533 1.23-16.451 0.1-7.776-0.99-21.326-6.02-29.172-5.44-46.975 3.48-91.997-58.48-91.997-117.48 0-66.55 44.038-110.23 113.14-111.82 95.302-2.18 130.3 51.1 130.3 117.64z" style="color:#000"/></clipPath><clipPath id="clipPath14286" clipPathUnits="userSpaceOnUse"><path id="path14288" fill="#6ea827" d="m95.242 274.25c-20.494 98.94-61.977 112.27-100.97 110.66-7.518-0.31-7.181 1.16-15.69 0.09-7.418-0.93-20.347-5.69-27.832-5.14-44.818 3.29-87.77-55.32-87.77-111.12 0-62.95 42.013-104.26 107.94-105.77 90.928-2.07 124.32 48.33 124.32 111.28z" style="color:#000"/></clipPath><clipPath id="clipPath14290" clipPathUnits="userSpaceOnUse"><path id="path14292" fill="#6ea827" d="m97.162 268.96c-21.018 104.6-63.56 118.69-103.54 116.99-7.718-0.33-7.373 1.23-16.099 0.1-7.608-0.98-20.867-6.02-28.544-5.44-45.962 3.49-90.009-58.48-90.009-117.48 0-66.54 43.084-110.22 110.69-111.82 93.256-2.18 127.5 51.1 127.5 117.65z" style="color:#000"/></clipPath><clipPath id="clipPath14294" clipPathUnits="userSpaceOnUse"><path id="path14296" fill="#6ea827" d="m100.84 272.89c-21.478 104.6-64.957 118.7-105.82 117-7.886-0.33-7.533 1.23-16.451 0.1-7.776-0.99-21.326-6.02-29.172-5.44-46.975 3.48-91.997-58.48-91.997-117.48 0-66.55 44.038-110.23 113.14-111.82 95.302-2.18 130.3 51.1 130.3 117.64z" style="color:#000"/></clipPath><linearGradient id="linearGradient14306" x1="-24.924" x2="-28.859" y1="174.78" y2="272.92" gradientUnits="userSpaceOnUse"><stop id="stop8742" offset="0" stop-color="#7aa827"/><stop id="stop8744" offset="1" stop-color="#a3a827" stop-opacity="0"/></linearGradient><linearGradient id="linearGradient14308" x1="-47.224" x2="-51.159" y1="206.27" y2="295.47" gradientUnits="userSpaceOnUse"><stop id="stop13305" offset="0" stop-color="#fff"/><stop id="stop13307" offset="1" stop-color="#fff" stop-opacity="0"/></linearGradient><radialGradient id="radialGradient15285" cx="-44.642" cy="283.91" r="121.72" gradientTransform="matrix(.18752 .97812 -.90903 .17428 237.7 251.61)" gradientUnits="userSpaceOnUse"><stop id="stop13293" offset="0" stop-color="#b3ff4b"/><stop id="stop15283" offset=".738" stop-color="#68a02c"/><stop id="stop13295" offset="1" stop-color="#3c6320"/></radialGradient><radialGradient id="radialGradient15312" cx="-81.082" cy="44.942" r="44.556" gradientTransform="matrix(-.017898 -1.1769 2.3722 -.034480 134.99 46.135)" gradientUnits="userSpaceOnUse" xlink:href="#linearGradient15314"/><filter id="filter18604" width="1.051" height="1.267" x="-.025" y="-.134"><feGaussianBlur id="feGaussianBlur18606" stdDeviation=".992"/></filter><radialGradient id="radialGradient21659" cx="204" cy="148.68" r="41.193" gradientTransform="matrix(-1.3366 -.10351 .027053 -.21760 472.64 188.56)" gradientUnits="userSpaceOnUse"><stop id="stop21655" offset="0" stop-color="#fff"/><stop id="stop21657" offset="1" stop-color="#fff" stop-opacity="0"/></radialGradient><filter id="filter24623"><feGaussianBlur id="feGaussianBlur24625" stdDeviation=".215"/></filter><pattern id="pattern26663" width="55.733" height="46.659" patternTransform="translate(163.81 -152.85)" patternUnits="userSpaceOnUse"><path id="path26661" fill="#d7eb90" fill-rule="evenodd" d="m-278.72-209.71a2.8861 7.8338 0 1 1 -5.77 0 2.8861 7.8338 0 1 1 5.77 0z" transform="matrix(.74092 0 0 .45974 262.24 100.97)" style="color:#000"/><path id="path26657" fill="#d7eb90" fill-rule="evenodd" d="m-278.72-209.71a2.8861 7.8338 0 1 1 -5.77 0 2.8861 7.8338 0 1 1 5.77 0z" transform="matrix(.74092 0 0 .45974 253.16 126.8)" style="color:#000"/><path id="path26655" fill="#d7eb90" fill-rule="evenodd" d="m-278.72-209.71a2.8861 7.8338 0 1 1 -5.77 0 2.8861 7.8338 0 1 1 5.77 0z" transform="matrix(.74092 0 0 .45974 241.64 111.22)" style="color:#000"/><path id="path26649" fill="#d7eb90" fill-rule="evenodd" d="m-278.72-209.71a2.8861 7.8338 0 1 1 -5.77 0 2.8861 7.8338 0 1 1 5.77 0z" transform="matrix(.74092 0 0 .45974 219.23 100.01)" style="color:#000"/><path id="path26647" fill="#d7eb90" fill-rule="evenodd" d="m-278.72-209.71a2.8861 7.8338 0 1 1 -5.77 0 2.8861 7.8338 0 1 1 5.77 0z" transform="matrix(.74092 0 0 .45974 236.44 139.47)" style="color:#000"/><path id="path26645" fill="#d7eb90" fill-rule="evenodd" d="m-278.72-209.71a2.8861 7.8338 0 1 1 -5.77 0 2.8861 7.8338 0 1 1 5.77 0z" transform="matrix(.74092 0 0 .45974 210.79 125.5)" style="color:#000"/><path id="path26643" fill="#d7eb90" fill-rule="evenodd" d="m-278.72-209.71a2.8861 7.8338 0 1 1 -5.77 0 2.8861 7.8338 0 1 1 5.77 0z" transform="matrix(.74092 0 0 .45974 210.79 125.5)" style="color:#000"/></pattern><clipPath id="clipPath29604" clipPathUnits="userSpaceOnUse"><path id="path29606" fill="#372a07" fill-rule="evenodd" d="m214.7 131.12l6.08 0.24c-2.53 1.72 4.83-35.347 16.01-42.737 4.84-3.194-1.2-12.315-3.82-10.933 0 0-6.47 4.671-7.23 8.094s-6.72 17.606-8.13 27.846-2.56 14.89-2.91 17.49z"/></clipPath><linearGradient id="linearGradient29608" x1="220.9" x2="225.37" y1="99.834" y2="101.95" gradientUnits="userSpaceOnUse"><stop id="stop28624" offset="0" stop-color="#fff"/><stop id="stop28626" offset="1" stop-color="#fff" stop-opacity="0"/></linearGradient><filter id="filter30589"><feGaussianBlur id="feGaussianBlur30591" stdDeviation=".577"/></filter><linearGradient id="linearGradient30599" x1="211.03" x2="243.95" y1="147.26" y2="109.28" gradientTransform="translate(-.13480 -.80877)" gradientUnits="userSpaceOnUse"><stop id="stop30595" offset="0"/><stop id="stop30597" offset="1" stop-opacity="0"/></linearGradient><clipPath id="clipPath30603" clipPathUnits="userSpaceOnUse"><path id="path30605" fill="url(#radialGradient30607)" fill-rule="evenodd" d="m172.55 119.65s20.11 15.24 54.07 11.77c34.15-3.52 40.79-10.06 40.79-10.06 28.52-31.581-136.2-25.141-94.86-1.71z"/></clipPath><radialGradient id="radialGradient30607" cx="-81.082" cy="44.942" r="44.556" gradientTransform="matrix(-.014603 -.96020 1.9354 -.028131 127.6 52.018)" gradientUnits="userSpaceOnUse" xlink:href="#linearGradient15314"/><pattern id="pattern30611" width="39.501" height="24.735" patternTransform="translate(160.89 -166)" patternUnits="userSpaceOnUse"><rect id="rect26672" width="32.882" height="19.296" x="1.724" y="5.439" fill="url(#pattern30614)"/><rect id="rect25640" width="39.501" height="24.735" x="0" y="0" fill="none"/></pattern><filter id="filter35726" width="1.125" height="1.877" x="-.063" y="-.439"><feGaussianBlur id="feGaussianBlur35728" stdDeviation="5.154"/></filter><linearGradient id="linearGradient37702" x1="-134.76" x2="-66.758" y1="343.28" y2="311.95" gradientUnits="userSpaceOnUse"><stop id="stop37698" offset="0" stop-color="#f8f8f8"/><stop id="stop37700" offset="1" stop-color="#f8f8f8" stop-opacity="0"/></linearGradient><filter id="filter38751" width="1.148" height="2.193" x="-.074" y="-.597"><feGaussianBlur id="feGaussianBlur38753" stdDeviation="9.881"/></filter><filter id="filter3417"><feGaussianBlur id="feGaussianBlur3419" stdDeviation=".957"/></filter></defs><g id="layer1" transform="translate(-72.384 -62.723)"><g id="g3421"><path id="path32567" fill="#4d4d4d" fill-rule="evenodd" d="m411.8 322.43a133.36 16.563 0 1 1 -266.73 0 133.36 16.563 0 1 1 266.73 0z" filter="url(#filter38751)" opacity=".677" transform="matrix(1.0479 0 0 4.0755 -28.316 -978.34)" style="color:#000"/><path id="path34711" fill-opacity=".953" fill-rule="evenodd" d="m304.27 315a82.43 11.748 0 1 1 -164.86 0 82.43 11.748 0 1 1 164.86 0z" filter="url(#filter35726)" transform="matrix(1.2257 0 0 1.5525 -21.402 -116.74)" style="color:#000"/><path id="path2416" fill="url(#radialGradient15285)" stroke="url(#linearGradient37702)" stroke-opacity=".301" stroke-width="2.1" d="m100.84 272.89c-21.478 104.6-64.957 118.7-105.82 117-7.886-0.33-7.533 1.23-16.451 0.1-7.776-0.99-21.326-6.02-29.172-5.44-46.975 3.48-91.997-58.48-91.997-117.48 0-66.55 44.038-110.23 113.14-111.82 95.302-2.18 130.3 51.1 130.3 117.64z" clip-path="url(#clipPath14294)" transform="matrix(1.2257 0 0 1.2257 269.61 -94.797)" style="color:#000"/><path id="path30619" fill="url(#pattern30611)" stroke="url(#pattern26663)" stroke-width="1" d="m100.84 272.89c-21.478 104.6-64.957 118.7-105.82 117-7.886-0.33-7.533 1.23-16.451 0.1-7.776-0.99-21.326-6.02-29.172-5.44-46.975 3.48-91.997-58.48-91.997-117.48 0-66.55 44.038-110.23 113.14-111.82 95.302-2.18 130.3 51.1 130.3 117.64z" clip-path="url(#clipPath14294)" filter="url(#filter3417)" opacity=".092" transform="matrix(1.2257 0 0 1.2257 269.61 -94.797)" style="color:#000"/><path id="path6441" fill="#241f1c" d="m92.378 214.65c3.1 12.07 4.531 25.05 4.531 38.56-21.481 104.61-64.948 118.71-105.81 117-7.887-0.33-7.553 1.23-16.471 0.1-7.776-0.99-21.311-6.02-29.157-5.44-29.224 2.17-57.691-21.01-75.031-53.03 13.12 45.79 49.338 84.68 86.813 81.9 7.845-0.58 21.412 4.46 29.187 5.44 8.9184 1.13 8.5532-0.45 16.438-0.12 40.864 1.7 84.363-12.37 105.84-116.97 0-25.13-5-48.37-16.342-67.44z" clip-path="url(#clipPath14290)" filter="url(#filter7541)" opacity=".477" transform="matrix(1.2527 0 0 1.2257 271.5 -89.974)" style="color:#000"/><path id="path7549" fill="url(#linearGradient14306)" d="m-86.577 173.47c-6.701-0.91-11.022 5.78-15.743 10.5-5.63 5.62-12.1 9.77-15.74 17.05-3.48 6.96-6.97 8.7-10.49 15.74-2.56 5.11-1.32 13.59-1.32 19.68v19.67c0 8.2-0.67 12.45 3.94 17.06 6.87 6.87 5.25-8.81 5.25-14.43 0-8.5 0.48-12.29 5.24-17.06 5.79-5.78 14.35-8.86 11.81 1.32-1.89 7.57-1.57 12.59 1.31 18.36 3.072 6.14 6.141 8.29 11.807 2.62 5.334-5.33-1.396-10.57 6.559-2.62 5.256 5.26 8.414 11.02 15.742 9.18 6.967-1.74 5.096-9.18 17.053-9.18 8.965 0 8.049 3.94 15.741 3.94 11.333 0 10.82 0.65 14.43 7.87 3.952 7.9 7.301 8.61 11.806 13.11 5.6634 5.67 8.7081 2.76 11.806 10.5 1.8368 4.59 8.281-6.07 10.494-10.5 3.541-7.08 11.39-11.49 17.053-15.74 3.635-2.72 7.665 2.83 14.429-3.93 6.523-6.52 13.336-1.1 17.054 2.62 1.96 1.96 16.559 0 19.676 0 5.103 0 6.559-9.14 6.559-14.43 0-5.68-2.994-12.55-5.247-17.05-2.815-5.63-3.962-13.17-6.559-18.37-2.846-5.69-5.591-11.18-7.871-15.74-3.377-6.75-8.218-9.53-11.806-13.12-3.752-3.75-5.893-8.51-9.182-11.8-5.401-5.4-7.408-6.56-15.741-6.56-6.267 0-14.084-0.24-18.365-1.31-7.1684-1.79-9.5347-2.15-15.742-5.25-5.7279-2.86-5.6727-5.25-14.429-5.25h-39.353c-7.808 0-10.69 5.45-14.43 9.19-3.346 3.34-11.33 3.93-15.741 3.93z" clip-path="url(#clipPath14286)" filter="url(#filter13287)" transform="matrix(1.2847 0 0 1.2958 270.86 -115.69)" style="color:#000"/><path id="path10686" fill="url(#linearGradient14308)" fill-rule="evenodd" d="m-97.072 237.75c-2.436 2.89-5.358 11.35-3.938 17.05 2.491 9.95 1.566 10.03 9.186 15.74 4.888 3.67 4.65 8.89 10.494 11.81 2.431 1.21 2.623-14.62 2.623-17.05 0-4.13 5.247-6.54 5.247-14.43 0-8.84 0.196-11.61-3.935-15.74-2.875-2.88-17.745 1.85-19.677 2.62zm52.472-3.94c-3.651-3.65-4.706 15.29-3.936 18.37 2.476 9.9 7.871 6.73 7.871 18.36 0 9.44 0.889 10.07 5.247 14.43 4.41 4.41 10.106 3.51 17.053 5.25 7.33 1.83 12.21 5.25 19.677 5.25 8.5339 0 13.327-4.04 20.988-7.87 2.259-1.13 6.374-14.25 7.871-15.75 3.338-3.33-2.624-15.13-2.624-18.36 0-7.51 1.312-10.87 1.312-18.36 0-4.65-10.873-9.28-15.741-10.5-5.6234-1.4-15.607 1.31-22.3 1.31-7.075 0-12.452 2.63-19.677 2.63-8.658 0-8.434 1.59-15.741 5.24z" clip-path="url(#clipPath14282)" filter="url(#filter12154)" opacity=".358" transform="matrix(1.2257 0 0 1.2257 269.61 -94.797)"/><path id="path15302" fill="url(#radialGradient15312)" fill-rule="evenodd" d="m190.08 129.03s24.66 18.68 66.29 14.42c41.85-4.31 49.98-12.32 49.98-12.32 34.96-38.713-166.93-30.82-116.27-2.1z"/><path id="path18608" fill="#fff" fill-rule="evenodd" d="m207.5 98.429s-30.55 10.951-18.44 9.801c22.79-7.79 52.04-6.13 74.93 1.73-17.05-14.487-33.61-12.768-56.49-11.531z" filter="url(#filter18604)" opacity=".185" transform="matrix(1.439 .16791 -.13347 1.8103 -51.018 -113.18)" style="color:#000"/><path id="path16291" fill="url(#radialGradient21659)" fill-rule="evenodd" d="m186.03 121.66c-6.7-1.05-15.38 6.99-7.41 12.06 10.91 5.91 23.64 7.13 35.91 6.7 14.63 0.43 30.16-1.11 42.63-9.08 2.81-6.06-4.02-2.73-7.6-1.53-12.97 3.44-26.76 3.78-40.18 3.54-7.02-0.74-15.23-1.99-21.1-5.19 1.28-2.36 0.96-6.48-2.25-6.5z" filter="url(#filter18604)" opacity=".465" transform="matrix(1.7247 0 0 2.1853 -131.68 -142.84)"/><path id="path29610" fill="url(#linearGradient30599)" fill-rule="evenodd" d="m223.09 127.66l6.6-11.18s2.97-7.82 10.11-11.06c7.15-3.23 12.81-2.29 12.81-2.29l7.41 6.34s-10.78-2.7-22.51 9.3c-11.73 11.99-19.01 16.17-19.01 16.17-1.85-2.82-3.5 4.88 4.59-7.28z" clip-path="url(#clipPath30603)" filter="url(#filter30589)" transform="matrix(1.2231 -.079880 .079880 1.2231 -36.666 .48925)"/><g id="g29599" fill-rule="evenodd" clip-path="url(#clipPath29604)" transform="matrix(1.2257 0 0 1.2257 -24.046 -16.961)"><path id="path2419" fill="#372a07" d="m214.7 131.12l6.08 0.24c-2.53 1.72 4.83-35.347 16.01-42.737 4.84-3.194-1.2-12.315-3.82-10.933 0 0-6.47 4.671-7.23 8.094s-6.72 17.606-8.13 27.846-2.56 14.89-2.91 17.49z"/><path id="path5464" fill="#db9b1e" fill-opacity=".411" d="m233.13 78.205c-0.13 0.094-1.51 1.101-3.09 2.577-1.65 1.544-3.28 3.574-3.54 4.745-0.45 1.994-2.1 6.279-3.85 11.509-1.76 5.234-3.61 11.284-4.3 16.274-1.32 9.56-2.49 14.88-2.9 17.47l2.64 0.14c-0.01-0.98 0.78-3.48 1.03-5.11 0.52-3.42 1.54-8.17 3.01-13.2 1.47-5.04 3.38-10.35 5.65-14.926 2.26-4.573 4.87-8.407 7.99-10.467 0.9-0.599 1.24-1.355 1.3-2.376s0-2.832-0.56-3.958c-0.55-1.125-1.59-1.589-2.28-2.163-0.35-0.288-0.68-0.461-0.88-0.522-0.19-0.06-0.21 0-0.22 0.007z" filter="url(#filter24623)"/><path id="path24627" fill="url(#linearGradient29608)" d="m233.01 80.086c-1.93 1.568-4.25 3.001-5.29 5.349-4.08 10.785-3.95 12.263-6.11 18.325-1.22 4.93-2.08 9.94-3.07 14.92-0.73 3.88-1.44 7.76-2.15 11.64 1.24 0.8 0.82-3.06 1.55-4.41 1.84-14.18 5.33-27.653 10.86-39.624 1.29-2.309 3.6-3.781 5.55-5.454-0.14-0.508-1.01-0.385-1.34-0.746z" opacity=".262"/></g></g></g><metadata/></svg>